%TF.GenerationSoftware,KiCad,Pcbnew,9.0.0*%
%TF.CreationDate,2025-02-26T00:44:50-06:00*%
%TF.ProjectId,LM317regulador,4c4d3331-3772-4656-9775-6c61646f722e,rev?*%
%TF.SameCoordinates,Original*%
%TF.FileFunction,Copper,L2,Bot*%
%TF.FilePolarity,Positive*%
%FSLAX46Y46*%
G04 Gerber Fmt 4.6, Leading zero omitted, Abs format (unit mm)*
G04 Created by KiCad (PCBNEW 9.0.0) date 2025-02-26 00:44:50*
%MOMM*%
%LPD*%
G01*
G04 APERTURE LIST*
G04 Aperture macros list*
%AMRoundRect*
0 Rectangle with rounded corners*
0 $1 Rounding radius*
0 $2 $3 $4 $5 $6 $7 $8 $9 X,Y pos of 4 corners*
0 Add a 4 corners polygon primitive as box body*
4,1,4,$2,$3,$4,$5,$6,$7,$8,$9,$2,$3,0*
0 Add four circle primitives for the rounded corners*
1,1,$1+$1,$2,$3*
1,1,$1+$1,$4,$5*
1,1,$1+$1,$6,$7*
1,1,$1+$1,$8,$9*
0 Add four rect primitives between the rounded corners*
20,1,$1+$1,$2,$3,$4,$5,0*
20,1,$1+$1,$4,$5,$6,$7,0*
20,1,$1+$1,$6,$7,$8,$9,0*
20,1,$1+$1,$8,$9,$2,$3,0*%
G04 Aperture macros list end*
%TA.AperFunction,ComponentPad*%
%ADD10C,3.500000*%
%TD*%
%TA.AperFunction,ComponentPad*%
%ADD11RoundRect,0.250000X1.050000X-1.050000X1.050000X1.050000X-1.050000X1.050000X-1.050000X-1.050000X0*%
%TD*%
%TA.AperFunction,ComponentPad*%
%ADD12C,2.600000*%
%TD*%
%TA.AperFunction,ComponentPad*%
%ADD13RoundRect,0.250000X-1.050000X1.050000X-1.050000X-1.050000X1.050000X-1.050000X1.050000X1.050000X0*%
%TD*%
%TA.AperFunction,ComponentPad*%
%ADD14C,1.440000*%
%TD*%
G04 APERTURE END LIST*
D10*
%TO.P,H3,1*%
%TO.N,GND*%
X4000000Y-31000000D03*
%TD*%
%TO.P,H4,1*%
%TO.N,GND*%
X51000000Y-30000000D03*
%TD*%
%TO.P,H2,1*%
%TO.N,GND*%
X51000000Y-3000000D03*
%TD*%
D11*
%TO.P,J2,1,Pin_1*%
%TO.N,Net-(D1-A)*%
X50000000Y-20000000D03*
D12*
%TO.P,J2,2,Pin_2*%
%TO.N,GND*%
X50000000Y-14920000D03*
%TD*%
D13*
%TO.P,J1,1,Pin_1*%
%TO.N,GND*%
X5000000Y-15000000D03*
D12*
%TO.P,J1,2,Pin_2*%
%TO.N,Net-(D3-K)*%
X5000000Y-20080000D03*
%TD*%
D14*
%TO.P,RV1,1,1*%
%TO.N,Net-(D2-A)*%
X22540000Y-28000000D03*
%TO.P,RV1,2,2*%
%TO.N,GND*%
X20000000Y-28000000D03*
%TO.P,RV1,3,3*%
X17460000Y-28000000D03*
%TD*%
D10*
%TO.P,H1,1*%
%TO.N,GND*%
X4000000Y-3000000D03*
%TD*%
%TA.AperFunction,Conductor*%
%TO.N,GND*%
G36*
X54442539Y479815D02*
G01*
X54488294Y427011D01*
X54499500Y375500D01*
X54499500Y-33375500D01*
X54479815Y-33442539D01*
X54427011Y-33488294D01*
X54375500Y-33499500D01*
X624500Y-33499500D01*
X557461Y-33479815D01*
X511706Y-33427011D01*
X500500Y-33375500D01*
X500500Y-27903945D01*
X21319500Y-27903945D01*
X21319500Y-28096054D01*
X21349553Y-28285802D01*
X21408916Y-28468506D01*
X21408918Y-28468509D01*
X21496135Y-28639681D01*
X21609055Y-28795102D01*
X21744898Y-28930945D01*
X21900319Y-29043865D01*
X22071491Y-29131082D01*
X22071493Y-29131083D01*
X22162845Y-29160764D01*
X22254199Y-29190447D01*
X22443945Y-29220500D01*
X22443946Y-29220500D01*
X22636054Y-29220500D01*
X22636055Y-29220500D01*
X22825801Y-29190447D01*
X23008509Y-29131082D01*
X23179681Y-29043865D01*
X23335102Y-28930945D01*
X23470945Y-28795102D01*
X23583865Y-28639681D01*
X23671082Y-28468509D01*
X23730447Y-28285801D01*
X23760500Y-28096055D01*
X23760500Y-27903945D01*
X23730447Y-27714199D01*
X23671082Y-27531491D01*
X23583865Y-27360319D01*
X23470945Y-27204898D01*
X23335102Y-27069055D01*
X23179681Y-26956135D01*
X23008506Y-26868916D01*
X22825802Y-26809553D01*
X22730928Y-26794526D01*
X22636055Y-26779500D01*
X22443945Y-26779500D01*
X22380696Y-26789517D01*
X22254197Y-26809553D01*
X22071493Y-26868916D01*
X21900318Y-26956135D01*
X21811645Y-27020560D01*
X21744898Y-27069055D01*
X21744896Y-27069057D01*
X21744895Y-27069057D01*
X21609057Y-27204895D01*
X21609057Y-27204896D01*
X21609055Y-27204898D01*
X21560560Y-27271645D01*
X21496135Y-27360318D01*
X21408916Y-27531493D01*
X21349553Y-27714197D01*
X21319500Y-27903945D01*
X500500Y-27903945D01*
X500500Y-19961995D01*
X3199500Y-19961995D01*
X3199500Y-20198004D01*
X3199501Y-20198020D01*
X3230306Y-20432010D01*
X3291394Y-20659993D01*
X3381714Y-20878045D01*
X3381719Y-20878056D01*
X3452677Y-21000957D01*
X3499727Y-21082450D01*
X3499729Y-21082453D01*
X3499730Y-21082454D01*
X3643406Y-21269697D01*
X3643412Y-21269704D01*
X3810295Y-21436587D01*
X3810301Y-21436592D01*
X3997550Y-21580273D01*
X4128918Y-21656118D01*
X4201943Y-21698280D01*
X4201948Y-21698282D01*
X4201951Y-21698284D01*
X4420007Y-21788606D01*
X4647986Y-21849693D01*
X4881989Y-21880500D01*
X4881996Y-21880500D01*
X5118004Y-21880500D01*
X5118011Y-21880500D01*
X5352014Y-21849693D01*
X5579993Y-21788606D01*
X5798049Y-21698284D01*
X6002450Y-21580273D01*
X6189699Y-21436592D01*
X6356592Y-21269699D01*
X6500273Y-21082450D01*
X6618284Y-20878049D01*
X6708606Y-20659993D01*
X6769693Y-20432014D01*
X6800500Y-20198011D01*
X6800500Y-19961989D01*
X6769693Y-19727986D01*
X6708606Y-19500007D01*
X6618284Y-19281951D01*
X6618282Y-19281948D01*
X6618280Y-19281943D01*
X6576118Y-19208918D01*
X6500273Y-19077550D01*
X6484995Y-19057640D01*
X6419528Y-18972320D01*
X6364022Y-18899983D01*
X48199500Y-18899983D01*
X48199500Y-21100001D01*
X48199501Y-21100018D01*
X48210000Y-21202796D01*
X48210001Y-21202799D01*
X48265185Y-21369331D01*
X48265186Y-21369334D01*
X48357288Y-21518656D01*
X48481344Y-21642712D01*
X48630666Y-21734814D01*
X48797203Y-21789999D01*
X48899991Y-21800500D01*
X51100008Y-21800499D01*
X51202797Y-21789999D01*
X51369334Y-21734814D01*
X51518656Y-21642712D01*
X51642712Y-21518656D01*
X51734814Y-21369334D01*
X51789999Y-21202797D01*
X51800500Y-21100009D01*
X51800499Y-18899992D01*
X51799508Y-18890295D01*
X51789999Y-18797203D01*
X51789998Y-18797200D01*
X51765547Y-18723412D01*
X51734814Y-18630666D01*
X51642712Y-18481344D01*
X51518656Y-18357288D01*
X51425888Y-18300069D01*
X51369336Y-18265187D01*
X51369331Y-18265185D01*
X51367862Y-18264698D01*
X51202797Y-18210001D01*
X51202795Y-18210000D01*
X51100010Y-18199500D01*
X48899998Y-18199500D01*
X48899981Y-18199501D01*
X48797203Y-18210000D01*
X48797200Y-18210001D01*
X48630668Y-18265185D01*
X48630663Y-18265187D01*
X48481342Y-18357289D01*
X48357289Y-18481342D01*
X48265187Y-18630663D01*
X48265186Y-18630666D01*
X48210001Y-18797203D01*
X48210001Y-18797204D01*
X48210000Y-18797204D01*
X48199500Y-18899983D01*
X6364022Y-18899983D01*
X6356593Y-18890302D01*
X6356587Y-18890295D01*
X6189704Y-18723412D01*
X6189697Y-18723406D01*
X6002454Y-18579730D01*
X6002453Y-18579729D01*
X6002450Y-18579727D01*
X5920957Y-18532677D01*
X5798056Y-18461719D01*
X5798045Y-18461714D01*
X5579993Y-18371394D01*
X5352010Y-18310306D01*
X5118020Y-18279501D01*
X5118017Y-18279500D01*
X5118011Y-18279500D01*
X4881989Y-18279500D01*
X4881983Y-18279500D01*
X4881979Y-18279501D01*
X4647989Y-18310306D01*
X4420006Y-18371394D01*
X4201954Y-18461714D01*
X4201943Y-18461719D01*
X3997545Y-18579730D01*
X3810302Y-18723406D01*
X3810295Y-18723412D01*
X3643412Y-18890295D01*
X3643406Y-18890302D01*
X3499730Y-19077545D01*
X3381719Y-19281943D01*
X3381714Y-19281954D01*
X3291394Y-19500006D01*
X3230306Y-19727989D01*
X3199501Y-19961979D01*
X3199500Y-19961995D01*
X500500Y-19961995D01*
X500500Y375500D01*
X520185Y442539D01*
X572989Y488294D01*
X624500Y499500D01*
X54375500Y499500D01*
X54442539Y479815D01*
G37*
%TD.AperFunction*%
%TD*%
M02*
